<?xml version="1.0" encoding="utf-8"?>
<!-- Generator: Adobe Illustrator 21.0.0, SVG Export Plug-In . SVG Version: 6.00 Build 0)  -->
<svg version="1.1" id="Layer_1" xmlns="http://www.w3.org/2000/svg" xmlns:xlink="http://www.w3.org/1999/xlink" x="0px" y="0px"
	 viewBox="0 0 202 221" style="enable-background:new 0 0 202 221;" xml:space="preserve">
<style type="text/css">
	.st0{enable-background:new    ;}
	.st1{fill:#263238;}
	.st2{filter:url(#Adobe_OpacityMaskFilter);}
	.st3{fill:#FFFFFF;}
	.st4{opacity:0.2;mask:url(#mask-2);fill:#292E41;enable-background:new    ;}
	.st5{fill:#ACDBF2;}
	.st6{opacity:0.1;fill:#010201;enable-background:new    ;}
	.st7{fill:#253246;}
	.st8{fill:#FEFEFE;}
	.st9{fill:#AAD9F1;}
	.st10{fill:#253245;}
	.st11{filter:url(#Adobe_OpacityMaskFilter_1_);}
	.st12{mask:url(#mask-4);fill:#253245;}
	.st13{filter:url(#Adobe_OpacityMaskFilter_2_);}
	.st14{mask:url(#mask-6);fill:#253245;}
</style>
<title>Chico</title>
<desc>Created with Sketch.</desc>
<g class="st0">
	<path class="st1" d="M61.8,200.1c2.8,0,4.9,0.9,6.8,2.6c0.3,0.2,0.3,0.6,0,0.8l-2.2,2.3c-0.2,0.2-0.5,0.2-0.7,0
		c-1-0.9-2.4-1.4-3.8-1.4c-3.2,0-5.5,2.6-5.5,5.8c0,3.1,2.4,5.7,5.5,5.7c1.3,0,2.7-0.5,3.8-1.3c0.2-0.2,0.6-0.2,0.7,0l2.2,2.3
		c0.2,0.2,0.2,0.6,0,0.8c-1.9,1.8-4.3,2.7-6.8,2.7c-5.6,0-10.1-4.5-10.1-10.1C51.7,204.6,56.2,200.1,61.8,200.1z"/>
	<path class="st1" d="M71.9,200.9c0-0.3,0.3-0.5,0.5-0.5h3.3c0.3,0,0.5,0.3,0.5,0.5v7.1h8v-7.1c0-0.3,0.2-0.5,0.5-0.5h3.3
		c0.3,0,0.5,0.3,0.5,0.5v18.5c0,0.3-0.3,0.5-0.5,0.5h-3.3c-0.3,0-0.5-0.3-0.5-0.5v-7.4h-8v7.4c0,0.3-0.2,0.5-0.5,0.5h-3.3
		c-0.3,0-0.5-0.3-0.5-0.5V200.9z"/>
	<path class="st1" d="M93.5,200.9c0-0.3,0.3-0.5,0.5-0.5h3.4c0.3,0,0.5,0.3,0.5,0.5v18.5c0,0.3-0.3,0.5-0.5,0.5h-3.4
		c-0.3,0-0.5-0.3-0.5-0.5V200.9z"/>
	<path class="st1" d="M111.5,200.1c2.8,0,4.9,0.9,6.8,2.6c0.3,0.2,0.3,0.6,0,0.8l-2.2,2.3c-0.2,0.2-0.5,0.2-0.7,0
		c-1-0.9-2.4-1.4-3.8-1.4c-3.2,0-5.5,2.6-5.5,5.8c0,3.1,2.4,5.7,5.5,5.7c1.3,0,2.7-0.5,3.8-1.3c0.2-0.2,0.6-0.2,0.7,0l2.2,2.3
		c0.2,0.2,0.2,0.6,0,0.8c-1.9,1.8-4.3,2.7-6.8,2.7c-5.6,0-10.1-4.5-10.1-10.1C101.4,204.6,105.9,200.1,111.5,200.1z"/>
	<path class="st1" d="M130.2,200.1c5.6,0,10.1,4.5,10.1,10.1c0,5.6-4.5,10.1-10.1,10.1s-10.1-4.5-10.1-10.1
		C120.1,204.6,124.6,200.1,130.2,200.1z M130.2,215.8c3.1,0,5.6-2.5,5.6-5.6c0-3.1-2.5-5.6-5.6-5.6c-3.1,0-5.6,2.5-5.6,5.6
		C124.6,213.3,127.1,215.8,130.2,215.8z"/>
</g>
<g id="Page-1">
	<g id="Group-3" transform="translate(12.594779, 136.671413)">
		<g id="Clip-2">
		</g>
		<defs>
			<filter id="Adobe_OpacityMaskFilter" filterUnits="userSpaceOnUse" x="0.1" y="0.3" width="188.8" height="36.4">
				<feColorMatrix  type="matrix" values="1 0 0 0 0  0 1 0 0 0  0 0 1 0 0  0 0 0 1 0"/>
			</filter>
		</defs>
		<mask maskUnits="userSpaceOnUse" x="0.1" y="0.3" width="188.8" height="36.4" id="mask-2">
			<g class="st2">
				<polygon id="path-1" class="st3" points="188.9,36.7 188.9,0.3 0.1,0.3 0.1,36.7 				"/>
			</g>
		</mask>
		<path id="Fill-1" class="st4" d="M184.8,0.7c-3.3-1.3-7,0.4-8.2,3.7c-1.4,3.8-6.9,6.9-15.5,8.7c-5.9,1.3-11.6,1.6-13.9,1.6
			c-12.1-5.4-39-9.1-70.1-9.1c-42.5,0-77,7-77,15.5s34.5,15.5,77,15.5c31.3,0,58.2-3.8,70.2-9.2c6.9-0.1,34.7-1.6,41.2-18.6
			C189.7,5.7,188.1,2,184.8,0.7"/>
	</g>
	<path id="Fill-4" class="st5" d="M173.1,100.5c5.1,0,9.2,4.1,9.2,9.2c0,13.2-3.1,31.2-17.7,41.8c-9,6.5-26,10.1-27,10.1l-0.4-18.5
		l-0.1,0c0,0,12.8-3.5,17.4-7.1c6.3-4.9,9.4-13.8,9.4-26.4C163.9,104.7,168,100.5,173.1,100.5"/>
	<path id="Fill-6" class="st6" d="M173.1,100.5c5.1,0,9.2,4.1,9.2,9.2c0,13.2-3.1,31.2-17.7,41.8c-9,6.5-26,10.1-27,10.1l-0.4-18.5
		l6.8,4.6c0,0,12.4-1.3,17-4.9c6.3-4.9,12.3-15.6,12.3-28.2C173.4,109.6,173.1,100.5,173.1,100.5"/>
	<path id="Fill-8" class="st7" d="M140.6,145.7l0.3,11.9c5.4-1.3,15.7-4.3,21.8-8.7c13.5-9.7,16.3-26.6,16.3-39.1
		c0-3.2-2.6-5.9-5.9-5.9c-3.2,0-5.9,2.6-5.9,5.9c0,13.6-3.6,23.4-10.7,29C153,141.5,145.2,144.3,140.6,145.7 M137.6,165
		c-0.9,0-1.7-0.3-2.3-0.9c-0.6-0.6-1-1.5-1-2.3l-0.4-17.5c-0.1-0.3-0.2-0.6-0.2-1c0-1.6,1.1-3,2.6-3.4c3.1-0.8,12.8-3.9,16.1-6.4
		c5.4-4.3,8.1-12.3,8.1-23.7c0-6.9,5.6-12.6,12.5-12.6c6.9,0,12.6,5.6,12.6,12.6c0,14-3.3,33.1-19.1,44.5
		C157,161.2,139.3,165,137.6,165C137.7,165,137.6,165,137.6,165"/>
	<path id="Fill-10" class="st5" d="M89.7,72.2c34.9,0,63.1,28.3,63.1,63.3c0,34.9-28.3,28-63.1,28c-34.9,0-63.1,7-63.1-28
		C26.6,100.5,54.8,72.2,89.7,72.2"/>
	<path id="Fill-12" class="st6" d="M91.5,72.9c49.3,20.6,50.3,38.9,45,50.1c-1.1,2.3,1.4,4.5,3.5,3.2c4.9-3,8.2-8.1,8.2-13.2
		c0-15.3-11.2-27.9-35.8-36.5C105.9,74.1,98.8,72.9,91.5,72.9"/>
	<path id="Fill-14" class="st6" d="M126.6,84.4c28.7,28.7,24.3,41.8,17.3,48.2c-1.4,1.3-0.3,3.6,1.6,3.3c4.3-0.7,8.1-3.3,9.5-6.9
		c-4.7-12.2-3-19.7-17.8-32.8C133.3,92.6,131.8,86.5,126.6,84.4"/>
	<path id="Fill-16" class="st6" d="M88.2,72.9C39,93.5,37.9,111.8,43.2,123c1.1,2.3-1.4,4.5-3.5,3.2c-4.9-3-8.2-8.1-8.2-13.2
		c0-15.3,11.2-27.9,35.8-36.5C73.8,74.1,80.9,72.9,88.2,72.9"/>
	<path id="Fill-18" class="st6" d="M53.1,84.4c-28.7,28.7-24.3,41.8-17.3,48.2c1.4,1.3,0.3,3.6-1.6,3.3c-4.3-0.7-8.1-3.3-9.5-6.9
		c4.7-12.2,3-19.7,17.8-32.8C46.4,92.6,47.9,86.5,53.1,84.4"/>
	<path id="Fill-20" class="st8" d="M89.7,133.4c11.7,0,21.2,9.5,21.2,21.3c0,11.7-9.5,9.4-21.2,9.4c-11.7,0-21.2,2.3-21.2-9.4
		C68.5,142.9,78,133.4,89.7,133.4"/>
	<path id="Fill-22" class="st6" d="M89.7,155c34.9,0,53.3,0,63.1-19.5c0,34.9-28.3,28-63.1,28c-34.9,0-63.1,7-63.1-28
		C40.6,159.6,54.8,155,89.7,155"/>
	<path id="Fill-24" class="st7" d="M89.7,160.1c5.3,0,10.3,0.2,15.2,0.3c16.9,0.5,31.5,1,38.8-6c3.9-3.8,5.8-10,5.8-18.9
		c0-33-26.8-59.9-59.8-59.9c-33,0-59.8,26.9-59.8,59.9c0,8.9,1.9,15,5.8,18.9c7.2,7,21.8,6.6,38.8,6
		C79.4,160.2,84.4,160.1,89.7,160.1 M62.1,167.3c-13,0-23.9-1.3-31-8.2c-5.3-5.2-7.9-12.9-7.9-23.7c0-36.7,29.8-66.6,66.5-66.6
		c36.7,0,66.5,29.9,66.5,66.6c0,10.8-2.6,18.5-7.9,23.7c-9.2,9-25.2,8.5-43.6,7.9c-4.8-0.1-9.8-0.3-15-0.3c-5.1,0-10.1,0.2-15,0.3
		C70.3,167.2,66.1,167.3,62.1,167.3"/>
	<path id="Fill-26" class="st6" d="M103.8,117.1c15.1,0,29.4-7.4,36.9-14.4c0,0,7.1,5.1,5.2,7c-9.9,10-27.1,15.1-42.2,15.1H75.6
		c-17.8,0-31.8-5.3-41.8-18.5l3-5.6c8.8,9.1,23.7,16.6,38.8,16.6H103.8z"/>
	<path id="Fill-28" class="st5" d="M32.2,45.4l39.4-29.2c0,0-14.5-8.5-29.6-11.7c-9-1.9-18.6-1.2-23.4-0.6c-1.6,0.2-2.6,1.9-2,3.4
		L32.2,45.4z"/>
	<path id="Fill-30" class="st6" d="M39.6,9.3c12.5,2.6,24.6,8.8,24.6,8.8l7.4-2c0,0-14.5-8.5-29.6-11.7c-9-1.9-18.6-1.2-23.4-0.6
		c-1.6,0.2-2.6,1.9-2,3.4c0.4,1,1.5,1.6,2.6,1.5C22.8,8.3,31.6,7.7,39.6,9.3"/>
	<path id="Fill-32" class="st8" d="M32.2,45.4l4.4-3.3c0,0,1.5-18.2-5.1-25.5C27.2,12,25.2,9,21.2,6.9c-2-1.1-4.3,1-3.4,3.1
		L32.2,45.4z"/>
	<path id="Fill-34" class="st7" d="M19.9,6.9l13.7,33.5l32-23.8c-5.3-2.7-14.8-7-24.4-9C33.2,5.9,24.7,6.3,19.9,6.9 M32.2,48.6
		c-0.3,0-0.6,0-0.9-0.1c-0.9-0.3-1.7-1-2.1-1.9L13.6,8.4c-0.7-1.7-0.5-3.5,0.4-5c0.9-1.5,2.4-2.5,4.2-2.8c5-0.6,14.9-1.3,24.3,0.7
		C58,4.6,72.5,13,73.2,13.4c0.9,0.5,1.5,1.5,1.6,2.6c0.1,1.1-0.4,2.1-1.3,2.7L34.1,47.9C33.5,48.3,32.9,48.6,32.2,48.6"/>
	<path id="Fill-36" class="st5" d="M147.6,45.4l-39.4-29.2c0,0,14.5-8.5,29.6-11.7c9-1.9,18.6-1.2,23.4-0.6c1.6,0.2,2.6,1.9,2,3.4
		L147.6,45.4z"/>
	<path id="Fill-38" class="st6" d="M140.2,9.3c-12.5,2.6-24.6,8.8-24.6,8.8l-7.4-2c0,0,14.5-8.5,29.6-11.7c9-1.9,18.6-1.2,23.4-0.6
		c1.6,0.2,2.6,1.9,2,3.4c-0.4,1-1.5,1.6-2.6,1.5C156.9,8.3,148.2,7.7,140.2,9.3"/>
	<path id="Fill-40" class="st8" d="M147.6,45.4l-4.4-3.3c0,0-1.5-18.2,5.1-25.5c4.2-4.7,6.3-7.6,10.3-9.7c2-1.1,4.3,1,3.4,3.1
		L147.6,45.4z"/>
	<path id="Fill-42" class="st7" d="M138.6,7.6c-9.6,2-19.1,6.3-24.4,9l32,23.8l13.7-33.5C155,6.3,146.6,5.9,138.6,7.6 M145.7,47.9
		l-39.4-29.2c-0.9-0.6-1.3-1.7-1.3-2.7c0.1-1.1,0.7-2,1.6-2.6c0.6-0.4,15.2-8.8,30.7-12.1c9.4-2,19.3-1.3,24.3-0.7
		c1.8,0.2,3.3,1.2,4.2,2.8c0.9,1.5,1,3.4,0.4,5l-15.6,38.2c-0.4,0.9-1.1,1.6-2.1,1.9c-0.3,0.1-0.6,0.1-0.9,0.1
		C146.9,48.6,146.2,48.3,145.7,47.9"/>
	<path id="Fill-44" class="st9" d="M103.8,7.1c30.2,0,54.9,24.8,54.9,55c0,15.1-6.2,28.9-16.1,38.9s-23.7,16.2-38.8,16.2H75.6
		c-30.2,0-54.9-24.8-54.9-55c0-15.1,6.2-28.9,16.1-38.9c10-10,23.7-16.2,38.8-16.2H103.8z"/>
	<path id="Fill-46" class="st6" d="M89.1,108.1c61.6,0,69.7-46,69.7-46c0,15.1-6.2,28.9-16.1,38.9c-9.9,10-23.7,16.2-38.8,16.2H75.6
		c-30.2,0-54.4-24.8-54.9-55C34.4,101.4,63.1,108.1,89.1,108.1"/>
	<path id="Fill-48" class="st7" d="M75.6,10.4c-13.7,0-26.6,5.4-36.4,15.2C29.4,35.4,24,48.3,24,62.1c0,28.5,23.1,51.7,51.6,51.7
		h28.3c13.7,0,26.6-5.4,36.4-15.2c9.8-9.8,15.1-22.8,15.1-36.5c0-28.5-23.1-51.7-51.6-51.7H75.6z M103.8,120.5H75.6
		c-32.1,0-58.2-26.2-58.2-58.4c0-15.5,6.1-30.2,17.1-41.2C45.5,9.8,60.1,3.7,75.6,3.7h28.3c32.1,0,58.2,26.2,58.2,58.4
		c0,15.5-6.1,30.2-17.1,41.2C133.9,114.4,119.3,120.5,103.8,120.5L103.8,120.5z"/>
	<path id="Fill-50" class="st8" d="M131,34.9c-0.6,0-1.2-0.3-1.6-0.9c-3.6-5.8-8.3-7.6-12.7-8.7c-1-0.2-1.6-1.3-1.4-2.3
		c0.2-1,1.3-1.6,2.3-1.4c5,1.2,10.7,3.4,15,10.4c0.6,0.9,0.3,2.1-0.6,2.6C131.7,34.8,131.3,34.9,131,34.9"/>
	<path id="Fill-52" class="st8" d="M108.5,24.3c-0.1,0-0.2,0-0.3,0c-2.4-0.3-4.8-0.5-7.1-0.5c-1,0-1.9-0.8-1.9-1.9
		c0-1,0.8-1.9,1.9-1.9c2.6,0,5.1,0.2,7.7,0.5c1,0.1,1.8,1.1,1.6,2.1C110.3,23.6,109.5,24.3,108.5,24.3"/>
	<path id="Fill-54" class="st8" d="M140.5,65.7c0,8.9-8,16.1-17.9,16.1c-9.9,0-17.9-7.2-17.9-16.1s8-16.1,17.9-16.1
		C132.4,49.6,140.5,56.8,140.5,65.7"/>
	<path id="Fill-56" class="st8" d="M74.4,65.7c0,8.9-8,16.1-17.9,16.1s-17.9-7.2-17.9-16.1s8-16.1,17.9-16.1S74.4,56.8,74.4,65.7"/>
	<path id="Fill-58" class="st10" d="M95.1,69.8c1.1,0,1.9-1,1.5-2.1c-0.9-2.9-3.6-5.1-6.8-5.1s-5.9,2.1-6.8,5.1
		c-0.3,1,0.5,2.1,1.6,2.1H95.1z"/>
	<path id="Fill-60" class="st10" d="M60.4,64.2c-1.7-0.3-3-1.6-3.3-3.3c-0.1-0.8,0-1.5,0.3-2.2c0.3-0.7-0.2-1.4-0.9-1.4h0
		c-3.1,0-6.1,1.6-7.5,4.3c-4,7.4,3.9,14.6,10.9,11.8c2.6-1.1,4.5-3.4,5-6.2c0.2-1.2,0.2-2.4-0.1-3.5c-0.1-0.5-0.7-0.7-1.1-0.4
		C62.8,64,61.7,64.4,60.4,64.2"/>
	<path id="Fill-62" class="st10" d="M126.5,64.2c-1.7-0.3-3-1.6-3.3-3.3c-0.1-0.8,0-1.5,0.3-2.2c0.3-0.7-0.2-1.4-0.9-1.4h0
		c-3.1,0-6.1,1.6-7.5,4.3C111,69,119,76.3,126,73.4c2.6-1.1,4.5-3.4,5-6.2c0.2-1.2,0.2-2.4-0.1-3.5c-0.1-0.5-0.7-0.7-1.1-0.4
		C128.9,64,127.8,64.4,126.5,64.2"/>
	<path id="Fill-64" class="st10" d="M104.6,88c-4.4,0-8.7-2.5-12.1-7.1c-3-4.1-4.7-9.2-4.7-13.7c0-1,0.8-1.9,1.9-1.9
		c1,0,1.9,0.8,1.9,1.9c0,7.5,6.1,17,13,17c1,0,1.9,0.8,1.9,1.9C106.5,87.1,105.7,88,104.6,88"/>
	<path id="Fill-66" class="st10" d="M74.8,88c-1,0-1.9-0.8-1.9-1.9c0-1,0.8-1.9,1.9-1.9c6.9,0,13-9.5,13-17c0-1,0.8-1.9,1.9-1.9
		s1.9,0.8,1.9,1.9c0,4.5-1.8,9.6-4.7,13.7C83.5,85.4,79.2,88,74.8,88"/>
	<path id="Fill-68" class="st10" d="M150,57.9c-0.8,0-1.5-0.5-1.8-1.3c-0.3-1,0.2-2.1,1.2-2.4l28.7-12.8c1-0.3,2.1,0.2,2.4,1.2
		c0.3,1-0.2,2.1-1.2,2.4l-28.7,12.8C150.4,57.8,150.2,57.9,150,57.9"/>
	<path id="Fill-70" class="st10" d="M178.7,90.8c-0.2,0-0.4,0-0.6-0.1L149.4,78c-1-0.3-1.5-1.4-1.2-2.4c0.3-1,1.4-1.5,2.4-1.2
		l28.7,12.8c1,0.3,1.5,1.4,1.2,2.4C180.2,90.4,179.5,90.8,178.7,90.8"/>
	<path id="Fill-72" class="st10" d="M169.4,68H150c-1,0-1.9-0.8-1.9-1.9c0-1,0.8-1.9,1.9-1.9h19.4c1,0,1.9,0.8,1.9,1.9
		C171.3,67.1,170.4,68,169.4,68"/>
	<g id="Group-76" transform="translate(0.000000, 40.891596)">
		<g id="Clip-75">
		</g>
		<defs>
			<filter id="Adobe_OpacityMaskFilter_1_" filterUnits="userSpaceOnUse" x="0" y="0.4" width="32.4" height="16.6">
				<feColorMatrix  type="matrix" values="1 0 0 0 0  0 1 0 0 0  0 0 1 0 0  0 0 0 1 0"/>
			</filter>
		</defs>
		<mask maskUnits="userSpaceOnUse" x="0" y="0.4" width="32.4" height="16.6" id="mask-4">
			<g class="st11">
				<polygon id="path-3" class="st3" points="0,0.4 0,17 32.4,17 32.4,0.4 				"/>
			</g>
		</mask>
		<path id="Fill-74" class="st12" d="M30.6,17c-0.2,0-0.4,0-0.6-0.1L1.3,4.1c-1-0.3-1.5-1.4-1.2-2.4c0.3-1,1.4-1.5,2.4-1.2
			l28.7,12.8c1,0.3,1.5,1.4,1.2,2.4C32.1,16.5,31.3,17,30.6,17"/>
	</g>
	<g id="Group-79" transform="translate(0.000000, 74.265621)">
		<g id="Clip-78">
		</g>
		<defs>
			<filter id="Adobe_OpacityMaskFilter_2_" filterUnits="userSpaceOnUse" x="0" y="0" width="32.4" height="16.6">
				<feColorMatrix  type="matrix" values="1 0 0 0 0  0 1 0 0 0  0 0 1 0 0  0 0 0 1 0"/>
			</filter>
		</defs>
		<mask maskUnits="userSpaceOnUse" x="0" y="0" width="32.4" height="16.6" id="mask-6">
			<g class="st13">
				<polygon id="path-5" class="st3" points="0,0 0,16.6 32.4,16.6 32.4,0 				"/>
			</g>
		</mask>
		<path id="Fill-77" class="st14" d="M1.9,16.6c-0.8,0-1.5-0.5-1.8-1.3c-0.3-1,0.2-2.1,1.2-2.4L29.9,0.1c1-0.3,2.1,0.2,2.4,1.2
			c0.3,1-0.2,2.1-1.2,2.4L2.5,16.5C2.3,16.5,2.1,16.6,1.9,16.6"/>
	</g>
	<path id="Fill-80" class="st10" d="M30.6,68H11.2c-1,0-1.9-0.8-1.9-1.9c0-1,0.8-1.9,1.9-1.9h19.4c1,0,1.9,0.8,1.9,1.9
		C32.4,67.1,31.6,68,30.6,68"/>
	<polyline id="Fill-82" class="st5" points="74.2,133.6 74.2,164 50.9,164 50.9,133.6 	"/>
	<path id="Fill-84" class="st10" d="M74.2,167.3H50.9c-1.8,0-3.3-1.5-3.3-3.3v-30.4c0-1.9,1.5-3.4,3.3-3.4c1.8,0,3.3,1.5,3.3,3.4
		v27.1h16.6v-27.1c0-1.9,1.5-3.4,3.3-3.4c1.8,0,3.3,1.5,3.3,3.4V164C77.5,165.8,76,167.3,74.2,167.3"/>
	<path id="Fill-86" class="st6" d="M62.5,151.3c-6.4,0-11.6,5.2-11.6,11.7h23.3C74.2,156.6,68.9,151.3,62.5,151.3"/>
	<path id="Fill-88" class="st8" d="M62.5,158.2c-6.4,0-11.6,5.2-11.6,11.7h23.3C74.2,163.4,68.9,158.2,62.5,158.2"/>
	<path id="Fill-90" class="st10" d="M54.9,166.5h15.2c-1.3-2.9-4.2-5-7.6-5C59.1,161.5,56.2,163.6,54.9,166.5 M74.2,173.2H50.9
		c-1.8,0-3.3-1.5-3.3-3.4c0-8.3,6.7-15,15-15c8.3,0,15,6.7,15,15C77.5,171.7,76,173.2,74.2,173.2"/>
	<polyline id="Fill-92" class="st5" points="128.5,133.6 128.5,164 105.2,164 105.2,133.6 	"/>
	<path id="Fill-94" class="st10" d="M128.5,167.3h-23.3c-1.8,0-3.3-1.5-3.3-3.3v-30.4c0-1.9,1.5-3.4,3.3-3.4c1.8,0,3.3,1.5,3.3,3.4
		v27.1h16.6v-27.1c0-1.9,1.5-3.4,3.3-3.4c1.8,0,3.3,1.5,3.3,3.4V164C131.9,165.8,130.4,167.3,128.5,167.3"/>
	<path id="Fill-96" class="st6" d="M116.9,151.3c-6.4,0-11.6,5.2-11.6,11.7h23.3C128.5,156.6,123.3,151.3,116.9,151.3"/>
	<path id="Fill-98" class="st8" d="M116.9,158.2c-6.4,0-11.6,5.2-11.6,11.7h23.3C128.5,163.4,123.3,158.2,116.9,158.2"/>
	<path id="Fill-100" class="st10" d="M109.3,166.5h15.2c-1.3-2.9-4.2-5-7.6-5C113.5,161.5,110.6,163.6,109.3,166.5 M128.5,173.2
		h-23.3c-1.8,0-3.3-1.5-3.3-3.4c0-8.3,6.7-15,15-15s15,6.7,15,15C131.9,171.7,130.4,173.2,128.5,173.2"/>
	<path id="Fill-102" class="st8" d="M171.2,128.7c-0.2,0-0.4,0-0.6-0.1c-1-0.3-1.5-1.4-1.2-2.4c0.4-1.3,0.8-2.6,1.1-4
		c0.2-1,1.2-1.7,2.2-1.4c1,0.2,1.7,1.2,1.4,2.3c-0.3,1.5-0.7,2.9-1.2,4.4C172.7,128.2,172,128.7,171.2,128.7"/>
	<path id="Fill-104" class="st8" d="M173.3,118.6c-0.1,0-0.1,0-0.2,0c-1-0.1-1.8-1-1.7-2.1c0.4-4,0.1-6.7,0.1-6.7
		c-0.1-1,0.6-2,1.7-2.1c1-0.1,2,0.6,2.1,1.7c0,0.1,0.3,3.1-0.1,7.4C175,117.9,174.2,118.6,173.3,118.6"/>
</g>
</svg>
