<?xml version="1.0" encoding="UTF-8"?>
<svg width="202px" height="221px" viewBox="0 0 202 221" version="1.1" xmlns="http://www.w3.org/2000/svg" xmlns:xlink="http://www.w3.org/1999/xlink">
    <!-- Generator: Sketch 41.2 (35397) - http://www.bohemiancoding.com/sketch -->
    <title>Chico</title>
    <desc>Created with Sketch.</desc>
    <defs>
        <polygon id="path-1" points="188.911428 36.7151972 188.911428 0.288851354 0.13265803 0.288851354 0.13265803 36.7151972 188.911428 36.7151972"></polygon>
        <polygon id="path-3" points="0 0.408139058 0 16.959333 32.4404349 16.959333 32.4404349 0.408139058 0 0.408139058"></polygon>
        <polygon id="path-5" points="0 0.0243614321 0 16.5758683 32.4404349 16.5758683 32.4404349 0.0243614321 1.61888479e-20 0.0243614321"></polygon>
    </defs>
    <g id="Page-1" stroke="none" stroke-width="1" fill="none" fill-rule="evenodd">
        <g id="Desktop-HD" transform="translate(-620.000000, -182.000000)">
            <g id="Chico" transform="translate(620.000000, 182.000000)">
                <text id="CHICO" font-family="BrandonGrotesque-Black, Brandon Grotesque" font-size="27.9999983" font-weight="700" fill="#263238">
                    <tspan x="50.6820027" y="220">CHICO</tspan>
                </text>
                <g id="Page-1">
                    <g id="Group-3" transform="translate(12.594779, 136.671413)">
                        <mask id="mask-2" fill="white">
                            <use xlink:href="#path-1"></use>
                        </mask>
                        <g id="Clip-2"></g>
                        <path d="M184.807195,0.709169725 C181.516674,-0.547142202 177.837533,1.10825229 176.586466,4.40307798 C175.147461,8.18797706 169.654233,11.2920413 161.117353,13.1421881 C155.197281,14.4256376 149.546376,14.7113807 147.255275,14.7752339 C135.166671,9.39081193 108.304167,5.64502294 77.1063296,5.64502294 C34.5947371,5.64502294 0.13265803,12.5994358 0.13265803,21.179711 C0.13265803,29.7599862 34.5947371,36.7151972 77.1063296,36.7151972 C108.358319,36.7151972 135.259047,32.9566376 147.317391,27.5570505 C154.169193,27.4405183 182.045451,25.9144266 188.492707,8.94862844 C189.745366,5.65300459 188.095328,1.96388532 184.807195,0.709169725" id="Fill-1" fill="#292E41" opacity="0.2" mask="url(#mask-2)"></path>
                    </g>
                    <path d="M173.09926,100.527861 C178.187942,100.527861 182.313039,104.654375 182.313039,109.75465 C182.313039,122.988228 179.247088,140.986054 164.634052,151.554559 C155.643252,158.059605 138.625236,161.627403 137.621834,161.651348 L137.223659,143.19777 L137.080316,143.205751 C137.128097,143.205751 149.925453,139.709788 154.472616,136.126027 C160.72397,131.193366 163.893446,122.325751 163.893446,109.75465 C163.893446,104.654375 168.018543,100.527861 173.09926,100.527861" id="Fill-4" fill="#ACDBF2"></path>
                    <path d="M173.09926,100.527861 C178.187942,100.527861 182.313039,104.654375 182.313039,109.75465 C182.313039,122.988228 179.247088,140.986054 164.634052,151.554559 C155.643252,158.059605 138.625236,161.627403 137.621834,161.651348 L137.223659,143.19777 L144.032458,147.815155 C144.080239,147.815155 156.476235,146.496586 161.023398,142.912825 C167.275547,137.980164 173.366834,127.282357 173.366834,114.711256 C173.366834,109.610981 173.09926,100.527861 173.09926,100.527861" id="Fill-6" fill="#010201" opacity="0.1"></path>
                    <path d="M140.620732,145.690439 L140.877157,157.566339 C146.310658,156.252559 156.571638,153.255449 162.677259,148.837605 C176.14355,139.099192 178.969799,122.209219 178.969799,109.75465 C178.969799,106.5141 176.336267,103.877761 173.099101,103.877761 C169.866713,103.877761 167.236367,106.5141 167.236367,109.75465 C167.236367,123.400082 163.637658,133.158449 156.539783,138.757577 C153.046989,141.512045 145.246733,144.317595 140.620732,145.690439 M137.621675,165.001247 C136.762412,165.001247 135.935004,164.670008 135.312258,164.073779 C134.670399,163.459192 134.2993,162.613137 134.279391,161.723981 L133.902717,144.247357 C133.804766,143.946449 133.748225,143.627981 133.738669,143.295944 C133.694869,141.67966 134.802593,140.293247 136.323623,139.941256 C139.401519,139.140696 149.158408,136.051797 152.405927,133.492082 C157.809963,129.228283 160.550206,121.241045 160.550206,109.75465 C160.550206,102.819394 166.179609,97.1771642 173.099101,97.1771642 C180.023371,97.1771642 185.65596,102.819394 185.65596,109.75465 C185.65596,123.772825 182.347919,142.876109 166.58973,154.270715 C157.033521,161.186017 139.321087,164.962137 137.70131,165.000449 C137.67503,165.001247 137.647954,165.001247 137.621675,165.001247" id="Fill-8" fill="#253246"></path>
                    <path d="M89.6970473,72.1929991 C124.569247,72.1929991 152.831735,100.519082 152.831735,135.470733 C152.831735,170.415201 124.569247,163.423274 89.6970473,163.423274 C54.8328111,163.423274 26.5703227,170.415201 26.5703227,135.470733 C26.5703227,100.519082 54.8328111,72.1929991 89.6970473,72.1929991" id="Fill-10" fill="#ACDBF2"></path>
                    <path d="M91.4846159,72.8773459 C140.736521,93.5266761 141.821151,111.75597 136.495157,122.95263 C135.424862,125.203456 137.890364,127.46785 140.013435,126.168438 C144.953995,123.145786 148.229386,118.072649 148.225404,112.989933 C148.215051,97.6755385 137.003229,85.1076303 112.43979,76.4467404 C105.882638,74.134456 98.8301553,72.8773459 91.4846159,72.8773459" id="Fill-12" fill="#010201" opacity="0.1"></path>
                    <path d="M126.598269,84.3946294 C155.33379,113.068712 150.883782,126.201721 143.935621,132.547134 C142.538822,133.822602 143.625841,136.122914 145.490895,135.819611 C149.829413,135.113235 153.584207,132.485675 155.035158,128.909097 C150.383674,116.706749 152.02336,109.219161 137.223181,96.070189 C133.272485,92.5598587 131.764993,86.5057761 126.598269,84.3946294" id="Fill-14" fill="#010201" opacity="0.1"></path>
                    <path d="M88.2120921,72.8773459 C38.9601867,93.5266761 37.875557,111.75597 43.2015508,122.95263 C44.2718463,125.203456 41.8063443,127.46785 39.6832732,126.168438 C34.7427131,123.145786 31.4673224,118.072649 31.4705078,112.989933 C31.4816567,97.6755385 42.6926827,85.1076303 67.2569182,76.4467404 C73.8140703,74.134456 80.8665527,72.8773459 88.2120921,72.8773459" id="Fill-16" fill="#010201" opacity="0.1"></path>
                    <path d="M53.0983592,84.3946294 C24.3628384,113.068712 28.8128464,126.201721 35.7610068,132.547134 C37.1570097,133.822602 36.0707872,136.122914 34.2057338,135.819611 C29.8672148,135.113235 26.112421,132.485675 24.6614699,128.909097 C29.3129547,116.706749 27.6732685,109.219161 42.4734473,96.070189 C46.4241435,92.5598587 47.9316354,86.5057761 53.0983592,84.3946294" id="Fill-18" fill="#010201" opacity="0.1"></path>
                    <path d="M89.6998345,133.357032 C101.419729,133.357032 110.917804,142.877546 110.917804,154.624142 C110.917804,166.366748 101.419729,164.01695 89.6998345,164.01695 C77.9831258,164.01695 68.4850503,166.366748 68.4850503,154.624142 C68.4850503,142.877546 77.9831258,133.357032 89.6998345,133.357032" id="Fill-20" fill="#FEFEFE"></path>
                    <path d="M89.6970473,154.969109 C124.569247,154.969109 142.972913,155.018595 152.831735,135.470733 C152.831735,170.415201 124.569247,163.423274 89.6970473,163.423274 C54.8328111,163.423274 26.5703227,170.415201 26.5703227,135.470733 C40.6418406,159.608045 54.8328111,154.969109 89.6970473,154.969109" id="Fill-22" fill="#010201" opacity="0.1"></path>
                    <path d="M89.6974455,160.072178 C94.947786,160.072178 99.9998353,160.22782 104.884651,160.378673 C121.811086,160.899875 136.429697,161.349242 143.643839,154.335765 C147.577015,150.512554 149.489053,144.341939 149.489053,135.471132 C149.489053,102.426297 122.666367,75.5432972 89.6974455,75.5432972 C56.7325058,75.5432972 29.9138014,102.426297 29.9138014,135.471132 C29.9138014,144.342738 31.8258395,150.513352 35.7590159,154.335765 C42.9731574,161.349242 57.5893793,160.899077 74.5134256,160.378673 C79.3974448,160.22782 84.4479013,160.072178 89.6974455,160.072178 M62.054518,167.34027 C49.0835568,167.341068 38.1536427,165.998554 31.1043457,159.147105 C25.8046314,153.994949 23.2276404,146.25115 23.2276404,135.471132 C23.2276404,98.7315908 53.0461982,68.8419028 89.6974455,68.8419028 C126.353471,68.8419028 156.175214,98.7315908 156.175214,135.471132 C156.175214,146.25115 153.598223,153.994949 148.298509,159.146306 C139.052876,168.132848 123.122676,167.641976 104.679989,167.075279 C99.8445469,166.92682 94.8450568,166.773572 89.6974455,166.773572 C84.5506305,166.773572 79.5519368,166.92682 74.7180877,167.075279 C70.3373622,167.210169 66.0959981,167.34027 62.054518,167.34027" id="Fill-24" fill="#253246"></path>
                    <path d="M103.840476,117.105352 C118.939286,117.105352 133.217855,109.656077 140.790355,102.689692 C140.790355,102.689692 147.923268,107.75405 146.025564,109.656077 C136.079143,119.62516 118.939286,124.707875 103.840476,124.707875 L75.5620603,124.707875 C57.7827332,124.707875 43.790054,119.404866 33.7393111,106.16171 L36.7877418,100.527462 C45.6192717,109.656077 60.4712134,117.105352 75.5620603,117.105352 L103.840476,117.105352 Z" id="Fill-26" fill="#010201" opacity="0.1"></path>
                    <path d="M32.1848344,45.3679459 L71.5556196,16.1479183 C71.5556196,16.1479183 57.0636285,7.66581743 41.9616327,4.47634954 C32.9190698,2.56634037 23.3827695,3.25675321 18.561662,3.82744128 C16.9394955,4.01900092 15.9528169,5.70712018 16.5723778,7.22203761 L32.1848344,45.3679459 Z" id="Fill-28" fill="#ACDBF2"></path>
                    <path d="M39.5631835,9.31953578 C52.0738539,11.9183615 64.1879416,18.1296826 64.1879416,18.1296826 L71.5557789,16.1478385 C71.5557789,16.1478385 57.0637878,7.66573761 41.961792,4.47626972 C32.9192291,2.56626055 23.3829288,3.25667339 18.5618213,3.82736147 C16.9396548,4.0189211 15.9529762,5.70704037 16.5725371,7.2219578 C16.9906212,8.24360917 18.0282663,8.86298532 19.1232486,8.74166422 C22.8374285,8.32821468 31.574989,7.66015046 39.5631835,9.31953578" id="Fill-30" fill="#010201" opacity="0.1"></path>
                    <path d="M32.1848344,45.3679459 L36.5759125,42.1098358 C36.5759125,42.1098358 38.0961461,23.918056 31.4705078,16.6547532 C27.2211802,11.9958633 25.1562427,9.04345046 21.1625436,6.93868899 C19.124682,5.86435872 16.8646386,7.93639541 17.7382353,10.070689 L32.1848344,45.3679459 Z" id="Fill-32" fill="#FEFEFE"></path>
                    <path d="M19.8756408,6.87986422 L33.5784483,40.3604972 L65.6092685,16.5895431 C60.2872564,13.9013229 50.7891809,9.58165321 41.1859871,7.5535156 C33.1930145,5.86539633 24.7349731,6.3490844 19.8756408,6.87986422 M32.1848344,48.5608459 C31.8981482,48.5608459 31.6106655,48.5225339 31.3287574,48.4435156 C30.3818963,48.1785248 29.6110288,47.4913046 29.2375403,46.5798 L13.6218983,8.42431376 C12.9457965,6.77211193 13.0740089,4.94271743 13.9746817,3.40385505 C14.874558,1.86738716 16.4027551,0.863295413 18.1682647,0.649387156 C23.2043869,0.0379926606 33.062413,-0.688337615 42.4999658,1.3054789 C57.9611158,4.57077248 72.5478726,13.0321211 73.1610627,13.3904972 C74.0864223,13.9316532 74.6781109,14.902222 74.7370409,15.9741578 C74.7951745,17.0460936 74.3125859,18.0749284 73.4517308,18.7142587 L34.0801493,47.9342862 C33.5258891,48.3453413 32.8601399,48.5608459 32.1848344,48.5608459" id="Fill-34" fill="#253246"></path>
                    <path d="M147.580678,45.3679459 L108.209893,16.1479183 C108.209893,16.1479183 122.701884,7.66581743 137.80388,4.47634954 C146.846443,2.56634037 156.382743,3.25675321 161.203851,3.82744128 C162.826017,4.01900092 163.812696,5.70712018 163.193135,7.22203761 L147.580678,45.3679459 Z" id="Fill-36" fill="#ACDBF2"></path>
                    <path d="M140.202329,9.31953578 C127.691659,11.9183615 115.577571,18.1296826 115.577571,18.1296826 L108.209734,16.1478385 C108.209734,16.1478385 122.701725,7.66573761 137.803721,4.47626972 C146.846284,2.56626055 156.382584,3.25667339 161.203691,3.82736147 C162.825858,4.0189211 163.812536,5.70704037 163.192976,7.2219578 C162.774891,8.24360917 161.737246,8.86298532 160.642264,8.74166422 C156.928084,8.32821468 148.190524,7.66015046 140.202329,9.31953578" id="Fill-38" fill="#010201" opacity="0.1"></path>
                    <path d="M147.580678,45.3679459 L143.1896,42.1098358 C143.1896,42.1098358 141.669367,23.918056 148.295005,16.6547532 C152.544332,11.9958633 154.60927,9.04345046 158.602969,6.93868899 C160.640831,5.86435872 162.900874,7.93639541 162.027277,10.070689 L147.580678,45.3679459 Z" id="Fill-40" fill="#FEFEFE"></path>
                    <path d="M138.579685,7.55327615 C128.975695,9.58221193 119.478416,13.9018817 114.156403,16.5893037 L146.187224,40.361056 L159.890031,6.87962477 C155.030699,6.34884495 146.572657,5.86515688 138.579685,7.55327615 M145.684726,47.9340468 L106.313941,18.7140193 C105.453086,18.0754872 104.970497,17.0458541 105.028631,15.9739183 C105.087561,14.9019826 105.67925,13.9314138 106.604609,13.3902578 C107.217799,13.0318817 121.804556,4.57133119 137.265706,1.30523945 C146.703259,-0.688577064 156.561285,0.037753211 161.596611,0.649147706 C163.362917,0.863055963 164.891114,1.86714771 165.790194,3.4036156 C166.690867,4.94247798 166.819875,6.77187248 166.143774,8.42407431 L150.527335,46.5803587 C150.154643,47.4910651 149.382979,48.1782853 148.436118,48.4432761 C148.155006,48.5222945 147.867524,48.5606064 147.580837,48.5606064 C146.905532,48.5606064 146.239783,48.3451018 145.684726,47.9340468" id="Fill-42" fill="#253246"></path>
                    <path d="M103.840476,7.05442294 C134.038096,7.05442294 158.740897,31.8135055 158.740897,62.0799275 C158.740897,77.2131385 152.561215,90.9735055 142.614794,100.942588 C132.668373,110.911671 118.939286,117.105432 103.840476,117.105432 L75.5620603,117.105432 C45.372403,117.105432 20.661639,92.3463495 20.661639,62.0799275 C20.661639,46.9467165 26.8413209,33.1863495 36.7877418,23.217267 C46.7421263,13.2481844 60.4712134,7.05442294 75.5620603,7.05442294 L103.840476,7.05442294 Z" id="Fill-44" fill="#AAD9F1"></path>
                    <path d="M89.0865648,108.059747 C150.670758,108.059747 158.740977,62.0806459 158.740977,62.0806459 C158.740977,77.2138569 152.561295,90.9734257 142.614874,100.942508 C132.668453,110.911591 118.939366,117.105352 103.840555,117.105352 L75.5621399,117.105352 C45.3724826,117.105352 21.1315656,92.3183339 20.6617186,62.0806459 C34.4035473,101.407839 63.0721746,108.059747 89.0865648,108.059747" id="Fill-46" fill="#010201" opacity="0.1"></path>
                    <path d="M75.5622195,10.4049606 C61.8586157,10.4049606 48.9266757,15.7965661 39.1506738,25.5868596 C29.3842281,35.376355 24.0048787,48.3369606 24.0048787,62.0805661 C24.0048787,90.5742633 47.1332938,113.755373 75.5622195,113.755373 L103.840635,113.755373 C117.552999,113.755373 130.483346,108.363768 140.250588,98.5734743 C150.018626,88.7839789 155.397976,75.8233734 155.397976,62.0805661 C155.397976,33.5860706 132.269561,10.4049606 103.840635,10.4049606 L75.5622195,10.4049606 Z M103.840635,120.45597 L75.5622195,120.45597 C43.4469861,120.45597 17.3187178,94.2689697 17.3187178,62.0805661 C17.3187178,46.5466761 23.3940777,31.9043367 34.424332,20.8481532 C45.4641426,9.79196972 60.0731973,3.70356606 75.5622195,3.70356606 L103.840635,3.70356606 C135.955868,3.70356606 162.08334,29.8913642 162.08334,62.0805661 C162.08334,77.6136578 156.008777,92.2559972 144.978522,103.312181 C133.947472,114.366768 119.338417,120.45597 103.840635,120.45597 L103.840635,120.45597 Z" id="Fill-48" fill="#253246"></path>
                    <path d="M130.993409,34.893545 C130.364292,34.893545 129.749509,34.5782697 129.391947,34.004389 C125.758199,28.1650128 121.130604,26.3659486 116.671837,25.2916183 C115.659675,25.0473798 115.036132,24.0273248 115.279815,23.0128569 C115.522702,21.998389 116.540439,21.3734257 117.553397,21.6168661 C122.540942,22.8189028 128.227682,24.9931046 132.590888,32.0041872 C133.141963,32.8893523 132.872796,34.0546734 131.988847,34.6078018 C131.679067,34.8009578 131.334247,34.893545 130.993409,34.893545" id="Fill-50" fill="#FEFEFE"></path>
                    <path d="M108.54667,24.262145 C108.462257,24.262145 108.376251,24.2565578 108.289448,24.2445853 C105.935436,23.9229248 103.530456,23.7600991 101.141404,23.7600991 C100.099777,23.7600991 99.2556455,22.914044 99.2556455,21.870044 C99.2556455,20.8268422 100.099777,19.9807872 101.141404,19.9807872 C103.700079,19.9807872 106.276274,20.1555853 108.799113,20.5003927 C109.830387,20.6408697 110.552677,21.5938789 110.41252,22.6275028 C110.283511,23.5749248 109.475215,24.262145 108.54667,24.262145" id="Fill-52" fill="#FEFEFE"></path>
                    <path d="M140.480813,65.6868358 C140.480813,74.5847807 132.444837,81.7985972 122.53266,81.7985972 C112.619685,81.7985972 104.584506,74.5847807 104.584506,65.6868358 C104.584506,56.7888908 112.619685,49.5750743 122.53266,49.5750743 C132.444837,49.5750743 140.480813,56.7888908 140.480813,65.6868358" id="Fill-54" fill="#FEFEFE"></path>
                    <path d="M74.3848149,65.6868358 C74.3848149,74.5847807 66.3488394,81.7985972 56.4366615,81.7985972 C46.5244836,81.7985972 38.4885081,74.5847807 38.4885081,65.6868358 C38.4885081,56.7888908 46.5244836,49.5750743 56.4366615,49.5750743 C66.3488394,49.5750743 74.3848149,56.7888908 74.3848149,65.6868358" id="Fill-56" fill="#FEFEFE"></path>
                    <path d="M95.1483072,69.8428817 C96.2305478,69.8428817 97.014157,68.795689 96.6980057,67.7580743 C95.8084819,64.8320009 93.0937222,62.7024963 89.882836,62.7024963 C86.6719497,62.7024963 83.95719,64.8320009 83.0668698,67.7580743 C82.7515149,68.795689 83.5351241,69.8428817 84.6173647,69.8428817 L95.1483072,69.8428817 Z" id="Fill-58" fill="#253245"></path>
                    <path d="M60.4467654,64.1988165 C58.7847814,63.9378165 57.4277997,62.5785413 57.1626149,60.9135688 C57.0375878,60.1273761 57.1435025,59.3771009 57.4214289,58.7178165 C57.7017444,58.0537431 57.2438427,57.318633 56.5239416,57.3194312 L56.4873094,57.3194312 C53.3879123,57.323422 50.4215057,58.9125688 48.9434787,61.6430917 C44.9450016,69.0277156 52.8886004,76.2574954 59.8598549,73.4256055 C62.4607365,72.3680367 64.3695893,69.9847156 64.8673085,67.2166789 C65.0894903,65.9779266 65.0345421,64.7806789 64.7582084,63.6712294 C64.6339777,63.1699817 64.0446781,62.9800183 63.6504845,63.3128532 C62.8087418,64.0232202 61.6699602,64.3911743 60.4467654,64.1988165" id="Fill-60" fill="#253245"></path>
                    <path d="M126.542684,64.1988165 C124.8807,63.9378165 123.523718,62.5785413 123.258533,60.9135688 C123.133506,60.1273761 123.239421,59.3771009 123.517347,58.7178165 C123.797663,58.0537431 123.339761,57.318633 122.61986,57.3194312 L122.583228,57.3194312 C119.483831,57.323422 116.517424,58.9125688 115.039397,61.6430917 C111.04092,69.0277156 118.984519,76.2574954 125.955773,73.4256055 C128.555859,72.3680367 130.465508,69.9847156 130.963227,67.2166789 C131.185409,65.9779266 131.130461,64.7806789 130.854127,63.6712294 C130.729896,63.1699817 130.140597,62.9800183 129.745607,63.3128532 C128.90466,64.0232202 127.765879,64.3911743 126.542684,64.1988165" id="Fill-62" fill="#253245"></path>
                    <path d="M104.615803,87.9598734 C100.193667,87.9598734 95.9085036,85.4209101 92.5486998,80.8123046 C89.5862749,76.7472495 87.8175799,71.6342037 87.8175799,67.1325523 C87.8175799,66.0893505 88.6617117,65.2432954 89.7025421,65.2432954 C90.7441689,65.2432954 91.5883007,66.0893505 91.5883007,67.1325523 C91.5883007,74.6472771 97.7217943,84.1813596 104.615803,84.1813596 C105.65743,84.1813596 106.500765,85.0266165 106.500765,86.0706165 C106.500765,87.1138183 105.65743,87.9598734 104.615803,87.9598734" id="Fill-64" fill="#253245"></path>
                    <path d="M74.7896,87.9598734 C73.7479732,87.9598734 72.9046378,87.1138183 72.9046378,86.0706165 C72.9046378,85.0266165 73.7479732,84.1813596 74.7896,84.1813596 C81.6836085,84.1813596 87.8178984,74.6472771 87.8178984,67.1325523 C87.8178984,66.0893505 88.6612339,65.2432954 89.7028607,65.2432954 C90.7444875,65.2432954 91.5878229,66.0893505 91.5878229,67.1325523 C91.5878229,71.6342037 89.8199242,76.7472495 86.8574994,80.8123046 C83.4976956,85.4209101 79.2117358,87.9598734 74.7896,87.9598734" id="Fill-66" fill="#253245"></path>
                    <path d="M150.007796,57.8509294 C149.227372,57.8509294 148.497915,57.3616541 148.227156,56.5810486 C147.884725,55.5961128 148.404742,54.5185899 149.388235,54.1761771 L178.056862,41.4055349 C179.041152,41.0615257 180.115429,41.5835257 180.457064,42.5692596 C180.799494,43.5549936 180.279477,44.6317183 179.295984,44.9741312 L150.627357,57.7447734 C150.422695,57.8166083 150.213255,57.8509294 150.007796,57.8509294" id="Fill-68" fill="#253245"></path>
                    <path d="M178.676423,90.841489 C178.470965,90.841489 178.262321,90.8079661 178.056862,90.7361312 L149.388235,77.965489 C148.404742,77.622278 147.884725,76.5455532 148.227156,75.5598193 C148.569587,74.5748835 149.643067,74.0536817 150.627357,74.3960945 L179.295984,87.1667367 C180.279477,87.5091495 180.799494,88.5866725 180.457064,89.5724064 C180.186304,90.3522138 179.456051,90.841489 178.676423,90.841489" id="Fill-70" fill="#253245"></path>
                    <path d="M169.385399,67.960489 L150.007796,67.960489 C148.966169,67.960489 148.122834,67.1144339 148.122834,66.0712321 C148.122834,65.0272321 148.966169,64.1819752 150.007796,64.1819752 L169.385399,64.1819752 C170.427026,64.1819752 171.270361,65.0272321 171.270361,66.0712321 C171.270361,67.1144339 170.427026,67.960489 169.385399,67.960489" id="Fill-72" fill="#253245"></path>
                    <g id="Group-76" transform="translate(0.000000, 40.891596)">
                        <mask id="mask-4" fill="white">
                            <use xlink:href="#path-3"></use>
                        </mask>
                        <g id="Clip-75"></g>
                        <path d="M30.5544655,16.959333 C30.349007,16.959333 30.1403631,16.9250119 29.9349046,16.8531771 L1.26627734,4.08253486 C0.282784154,3.74012202 -0.237232891,2.66339725 0.105197935,1.6776633 C0.447628761,0.692727523 1.52031323,0.169929358 2.50539912,0.513938532 L31.1740264,13.2845807 C32.1575196,13.6269936 32.6775367,14.7045165 32.3351058,15.6894523 C32.0643466,16.4700578 31.3340929,16.959333 30.5544655,16.959333" id="Fill-74" fill="#253245" mask="url(#mask-4)"></path>
                    </g>
                    <g id="Group-79" transform="translate(0.000000, 74.265621)">
                        <mask id="mask-6" fill="white">
                            <use xlink:href="#path-5"></use>
                        </mask>
                        <g id="Clip-78"></g>
                        <path d="M1.88583823,16.5758683 C1.10541449,16.5758683 0.375957193,16.0873912 0.105197935,15.3067857 C-0.237232891,14.3210518 0.282784154,13.2435288 1.26627734,12.901116 L29.9349046,0.130473792 C30.9191942,-0.214333548 31.9934714,0.309262782 32.3351058,1.29419856 C32.6775367,2.27993251 32.1575196,3.35665728 31.1740264,3.69986829 L2.50539912,16.4705105 C2.30073698,16.5423454 2.09129673,16.5758683 1.88583823,16.5758683" id="Fill-77" fill="#253245" mask="url(#mask-6)"></path>
                    </g>
                    <path d="M30.5544655,67.960489 L11.1768625,67.960489 C10.1352357,67.960489 9.29110393,67.1144339 9.29110393,66.0712321 C9.29110393,65.0272321 10.1352357,64.1819752 11.1768625,64.1819752 L30.5544655,64.1819752 C31.5960923,64.1819752 32.4394278,65.0272321 32.4394278,66.0712321 C32.4394278,67.1144339 31.5960923,67.960489 30.5544655,67.960489" id="Fill-80" fill="#253245"></path>
                    <polyline id="Fill-82" fill="#ACDBF2" points="74.1565808 133.573734 74.1565808 163.992606 50.8848226 163.992606 50.8848226 133.573734"></polyline>
                    <path d="M74.1565808,167.342983 L50.8848226,167.342983 C49.0380852,167.342983 47.5417421,165.843231 47.5417421,163.993084 L47.5417421,133.573415 C47.5417421,131.723268 49.0380852,130.222717 50.8848226,130.222717 C52.7307637,130.222717 54.2279031,131.723268 54.2279031,133.573415 L54.2279031,160.641589 L70.8135003,160.641589 L70.8135003,133.573415 C70.8135003,131.723268 72.3106398,130.222717 74.1565808,130.222717 C76.0025219,130.222717 77.4996613,131.723268 77.4996613,133.573415 L77.4996613,163.993084 C77.4996613,165.843231 76.0025219,167.342983 74.1565808,167.342983" id="Fill-84" fill="#253245"></path>
                    <path d="M62.520861,151.328997 C56.0943103,151.328997 50.8845837,156.550594 50.8845837,162.990988 L74.1563419,162.990988 C74.1563419,156.550594 68.9466152,151.328997 62.520861,151.328997" id="Fill-86" fill="#010201" opacity="0.1"></path>
                    <path d="M62.520861,158.16177 C56.0943103,158.16177 50.8845837,163.383366 50.8845837,169.823761 L74.1563419,169.823761 C74.1563419,163.383366 68.9466152,158.16177 62.520861,158.16177" id="Fill-88" fill="#FEFEFE"></path>
                    <path d="M54.9310012,166.473143 L70.110243,166.473143 C68.8217474,163.554253 65.9047146,161.511749 62.5210202,161.511749 C59.1365295,161.511749 56.2194967,163.554253 54.9310012,166.473143 M74.1565012,173.174538 L50.884743,173.174538 C49.0388019,173.174538 47.5416625,171.674785 47.5416625,169.82384 C47.5416625,161.54607 54.2612702,154.811152 62.5210202,154.811152 C70.779974,154.811152 77.4995817,161.54607 77.4995817,169.82384 C77.4995817,171.674785 76.0024422,173.174538 74.1565012,173.174538" id="Fill-90" fill="#253245"></path>
                    <polyline id="Fill-92" fill="#ACDBF2" points="128.517634 133.573734 128.517634 163.992606 105.245876 163.992606 105.245876 133.573734"></polyline>
                    <path d="M128.517634,167.342983 L105.245876,167.342983 C103.399934,167.342983 101.903591,165.843231 101.903591,163.993084 L101.903591,133.573415 C101.903591,131.723268 103.399934,130.222717 105.245876,130.222717 C107.092613,130.222717 108.588956,131.723268 108.588956,133.573415 L108.588956,160.641589 L125.174553,160.641589 L125.174553,133.573415 C125.174553,131.723268 126.671693,130.222717 128.517634,130.222717 C130.363575,130.222717 131.860714,131.723268 131.860714,133.573415 L131.860714,163.993084 C131.860714,165.843231 130.363575,167.342983 128.517634,167.342983" id="Fill-94" fill="#253245"></path>
                    <path d="M116.881914,151.328997 C110.455363,151.328997 105.246433,156.550594 105.246433,162.990988 L128.517395,162.990988 C128.517395,156.550594 123.308465,151.328997 116.881914,151.328997" id="Fill-96" fill="#010201" opacity="0.1"></path>
                    <path d="M116.881914,158.16177 C110.455363,158.16177 105.246433,163.383366 105.246433,169.823761 L128.517395,169.823761 C128.517395,163.383366 123.308465,158.16177 116.881914,158.16177" id="Fill-98" fill="#FEFEFE"></path>
                    <path d="M109.292452,166.473143 L124.471694,166.473143 C123.183199,163.554253 120.266166,161.511749 116.881675,161.511749 C113.497981,161.511749 110.580948,163.554253 109.292452,166.473143 M128.517952,173.174538 L105.246194,173.174538 C103.400253,173.174538 101.903114,171.674785 101.903114,169.82384 C101.903114,161.54607 108.622721,154.811152 116.881675,154.811152 C125.140629,154.811152 131.860236,161.54607 131.860236,169.82384 C131.860236,171.674785 130.363893,173.174538 128.517952,173.174538" id="Fill-100" fill="#253245"></path>
                    <path d="M171.196699,128.6904 C171.003186,128.6904 170.805691,128.66007 170.612177,128.596217 C169.621517,128.27296 169.080795,127.206611 169.404113,126.213694 C169.825383,124.917473 170.192501,123.570171 170.494317,122.206905 C170.719685,121.188446 171.726272,120.543528 172.742416,120.771804 C173.759356,120.997684 174.400418,122.006565 174.175051,123.025024 C173.846954,124.507217 173.447982,125.974244 172.988488,127.3854 C172.728878,128.182767 171.990661,128.6904 171.196699,128.6904" id="Fill-102" fill="#FEFEFE"></path>
                    <path d="M173.262194,118.597203 C173.202467,118.597203 173.143538,118.59401 173.083015,118.588423 C172.046166,118.490249 171.285651,117.569166 171.382806,116.529955 C171.755498,112.567863 171.494295,109.873258 171.491906,109.846918 C171.387584,108.809304 172.141728,107.882634 173.176984,107.777276 C174.209851,107.672717 175.136007,108.425386 175.242718,109.463001 C175.254663,109.58512 175.546924,112.523964 175.136803,116.88434 C175.044427,117.862891 174.223389,118.597203 173.262194,118.597203" id="Fill-104" fill="#FEFEFE"></path>
                </g>
            </g>
        </g>
    </g>
</svg>